<svg id="visual" viewBox="0 0 900 450" width="900" height="450" xmlns="http://www.w3.org/2000/svg" xmlns:xlink="http://www.w3.org/1999/xlink" version="1.1"><g stroke-width="1" stroke-linejoin="bevel"><path d="M393 251L441 292L447 161Z" fill="#515e8b" stroke="#515e8b"></path><path d="M441 292L521 305L447 161Z" fill="#28344e" stroke="#28344e"></path><path d="M375 394L446 336L441 292Z" fill="#28344e" stroke="#28344e"></path><path d="M441 292L446 336L521 305Z" fill="#3b486c" stroke="#3b486c"></path><path d="M521 305L545 157L447 161Z" fill="#313e5d" stroke="#313e5d"></path><path d="M446 336L515 333L521 305Z" fill="#4b5983" stroke="#4b5983"></path><path d="M545 157L506 113L447 161Z" fill="#404e73" stroke="#404e73"></path><path d="M375 118L337 172L447 161Z" fill="#515e8b" stroke="#515e8b"></path><path d="M447 161L337 172L393 251Z" fill="#4b5983" stroke="#4b5983"></path><path d="M393 251L375 394L441 292Z" fill="#515e8b" stroke="#515e8b"></path><path d="M473 90L375 118L447 161Z" fill="#364364" stroke="#364364"></path><path d="M506 113L473 90L447 161Z" fill="#404e73" stroke="#404e73"></path><path d="M337 172L288 255L393 251Z" fill="#232f47" stroke="#232f47"></path><path d="M288 255L375 394L393 251Z" fill="#515e8b" stroke="#515e8b"></path><path d="M446 336L512 450L515 333Z" fill="#46537b" stroke="#46537b"></path><path d="M596 390L638 269L521 305Z" fill="#313e5d" stroke="#313e5d"></path><path d="M521 305L638 269L545 157Z" fill="#364364" stroke="#364364"></path><path d="M638 269L633 166L545 157Z" fill="#2c3955" stroke="#2c3955"></path><path d="M545 157L638 109L506 113Z" fill="#1f2a40" stroke="#1f2a40"></path><path d="M506 113L556 0L473 90Z" fill="#46537b" stroke="#46537b"></path><path d="M512 450L596 390L515 333Z" fill="#2c3955" stroke="#2c3955"></path><path d="M515 333L596 390L521 305Z" fill="#515e8b" stroke="#515e8b"></path><path d="M705 216L638 109L633 166Z" fill="#364364" stroke="#364364"></path><path d="M633 166L638 109L545 157Z" fill="#364364" stroke="#364364"></path><path d="M375 394L432 450L446 336Z" fill="#3b486c" stroke="#3b486c"></path><path d="M375 118L260 112L337 172Z" fill="#1f2a40" stroke="#1f2a40"></path><path d="M337 172L238 157L288 255Z" fill="#2c3955" stroke="#2c3955"></path><path d="M344 0L260 112L375 118Z" fill="#1f2a40" stroke="#1f2a40"></path><path d="M260 112L238 157L337 172Z" fill="#2c3955" stroke="#2c3955"></path><path d="M556 0L424 0L473 90Z" fill="#364364" stroke="#364364"></path><path d="M473 90L424 0L375 118Z" fill="#404e73" stroke="#404e73"></path><path d="M432 450L512 450L446 336Z" fill="#232f47" stroke="#232f47"></path><path d="M235 450L386 450L375 394Z" fill="#2c3955" stroke="#2c3955"></path><path d="M375 394L386 450L432 450Z" fill="#4b5983" stroke="#4b5983"></path><path d="M263 369L375 394L288 255Z" fill="#404e73" stroke="#404e73"></path><path d="M215 365L263 369L288 255Z" fill="#28344e" stroke="#28344e"></path><path d="M238 157L211 247L288 255Z" fill="#28344e" stroke="#28344e"></path><path d="M638 109L556 0L506 113Z" fill="#46537b" stroke="#46537b"></path><path d="M726 288L705 216L638 269Z" fill="#46537b" stroke="#46537b"></path><path d="M638 269L705 216L633 166Z" fill="#4b5983" stroke="#4b5983"></path><path d="M424 0L344 0L375 118Z" fill="#404e73" stroke="#404e73"></path><path d="M512 450L596 450L596 390Z" fill="#515e8b" stroke="#515e8b"></path><path d="M731 366L726 288L638 269Z" fill="#404e73" stroke="#404e73"></path><path d="M689 63L609 0L638 109Z" fill="#364364" stroke="#364364"></path><path d="M638 109L609 0L556 0Z" fill="#28344e" stroke="#28344e"></path><path d="M211 247L215 365L288 255Z" fill="#364364" stroke="#364364"></path><path d="M263 369L235 450L375 394Z" fill="#364364" stroke="#364364"></path><path d="M731 366L638 269L596 390Z" fill="#2c3955" stroke="#2c3955"></path><path d="M705 216L689 63L638 109Z" fill="#1f2a40" stroke="#1f2a40"></path><path d="M724 0L689 63L801 0Z" fill="#404e73" stroke="#404e73"></path><path d="M344 0L255 0L260 112Z" fill="#404e73" stroke="#404e73"></path><path d="M186 76L157 158L238 157Z" fill="#364364" stroke="#364364"></path><path d="M238 157L157 158L211 247Z" fill="#232f47" stroke="#232f47"></path><path d="M186 76L238 157L260 112Z" fill="#515e8b" stroke="#515e8b"></path><path d="M211 247L85 267L215 365Z" fill="#232f47" stroke="#232f47"></path><path d="M255 0L186 76L260 112Z" fill="#404e73" stroke="#404e73"></path><path d="M699 450L731 366L596 390Z" fill="#1f2a40" stroke="#1f2a40"></path><path d="M215 365L235 450L263 369Z" fill="#2c3955" stroke="#2c3955"></path><path d="M214 450L235 450L215 365Z" fill="#232f47" stroke="#232f47"></path><path d="M81 381L214 450L215 365Z" fill="#313e5d" stroke="#313e5d"></path><path d="M596 450L699 450L596 390Z" fill="#364364" stroke="#364364"></path><path d="M255 0L199 0L186 76Z" fill="#4b5983" stroke="#4b5983"></path><path d="M95 115L108 158L157 158Z" fill="#313e5d" stroke="#313e5d"></path><path d="M816 211L689 63L705 216Z" fill="#364364" stroke="#364364"></path><path d="M689 63L724 0L609 0Z" fill="#3b486c" stroke="#3b486c"></path><path d="M816 211L705 216L726 288Z" fill="#515e8b" stroke="#515e8b"></path><path d="M95 115L157 158L186 76Z" fill="#364364" stroke="#364364"></path><path d="M157 158L85 267L211 247Z" fill="#313e5d" stroke="#313e5d"></path><path d="M834 280L726 288L731 366Z" fill="#1f2a40" stroke="#1f2a40"></path><path d="M834 280L816 211L726 288Z" fill="#404e73" stroke="#404e73"></path><path d="M108 158L85 267L157 158Z" fill="#28344e" stroke="#28344e"></path><path d="M55 0L95 115L186 76Z" fill="#313e5d" stroke="#313e5d"></path><path d="M0 178L0 244L85 267Z" fill="#313e5d" stroke="#313e5d"></path><path d="M840 367L834 280L731 366Z" fill="#2c3955" stroke="#2c3955"></path><path d="M699 450L781 450L731 366Z" fill="#404e73" stroke="#404e73"></path><path d="M85 267L81 381L215 365Z" fill="#3b486c" stroke="#3b486c"></path><path d="M781 450L840 367L731 366Z" fill="#364364" stroke="#364364"></path><path d="M846 80L801 0L689 63Z" fill="#1f2a40" stroke="#1f2a40"></path><path d="M846 80L689 63L816 211Z" fill="#404e73" stroke="#404e73"></path><path d="M900 217L846 80L816 211Z" fill="#313e5d" stroke="#313e5d"></path><path d="M900 217L816 211L900 241Z" fill="#232f47" stroke="#232f47"></path><path d="M900 241L816 211L834 280Z" fill="#232f47" stroke="#232f47"></path><path d="M900 387L900 241L834 280Z" fill="#28344e" stroke="#28344e"></path><path d="M0 324L81 381L85 267Z" fill="#1f2a40" stroke="#1f2a40"></path><path d="M0 450L65 450L81 381Z" fill="#46537b" stroke="#46537b"></path><path d="M81 381L65 450L214 450Z" fill="#404e73" stroke="#404e73"></path><path d="M0 178L85 267L108 158Z" fill="#3b486c" stroke="#3b486c"></path><path d="M0 117L0 178L95 115Z" fill="#3b486c" stroke="#3b486c"></path><path d="M95 115L0 178L108 158Z" fill="#364364" stroke="#364364"></path><path d="M199 0L55 0L186 76Z" fill="#515e8b" stroke="#515e8b"></path><path d="M0 244L0 324L85 267Z" fill="#3b486c" stroke="#3b486c"></path><path d="M55 0L0 117L95 115Z" fill="#28344e" stroke="#28344e"></path><path d="M900 450L900 387L840 367Z" fill="#515e8b" stroke="#515e8b"></path><path d="M840 367L900 387L834 280Z" fill="#46537b" stroke="#46537b"></path><path d="M900 217L900 60L846 80Z" fill="#4b5983" stroke="#4b5983"></path><path d="M846 80L900 0L801 0Z" fill="#4b5983" stroke="#4b5983"></path><path d="M781 450L900 450L840 367Z" fill="#364364" stroke="#364364"></path><path d="M900 60L900 0L846 80Z" fill="#2c3955" stroke="#2c3955"></path><path d="M0 324L0 450L81 381Z" fill="#4b5983" stroke="#4b5983"></path><path d="M55 0L0 0L0 117Z" fill="#515e8b" stroke="#515e8b"></path></g></svg>